<?xml version="1.0" encoding="UTF-8"?>
<svg version="1.1" xmlns="http://www.w3.org/2000/svg" width="500" height="500">
<path d="M0 0 C7.34514719 3.24553015 10.20875914 10.04677986 13.09179688 17.09179688 C14.78296904 20.79494903 15.73081944 21.89150225 19.56640625 23.4375 C25.32301172 24.38056165 28.14882865 22.98533622 33 20 C36.34396265 18.89759473 39.4950876 18.86623772 43 18.875 C44.03125 18.87242187 45.0625 18.86984375 46.125 18.8671875 C49 19 49 19 53 20 C53 26.27 53 32.54 53 39 C45 38 45 38 43 37 C43.42410156 37.83249268 43.84820312 38.66498535 44.28515625 39.52270508 C45.85541384 42.61210061 47.4202358 45.70412438 48.98144531 48.7980957 C49.65831981 50.13675617 50.33734421 51.47433181 51.01855469 52.81079102 C51.9972111 54.73172521 52.96807558 56.65642496 53.9375 58.58203125 C54.81728516 60.31803589 54.81728516 60.31803589 55.71484375 62.08911133 C57 65 57 65 57 68 C58.2684375 68.12955078 58.2684375 68.12955078 59.5625 68.26171875 C67.95914546 69.30175779 74.33505923 70.76241224 80 77.3125 C80.33 77.869375 80.66 78.42625 81 79 C77.25 82 77.25 82 75 82 C75 82.66 75 83.32 75 84 C75.5775 84.185625 76.155 84.37125 76.75 84.5625 C80.66313864 87.0625608 82.44962093 90.79056458 83.54296875 95.1796875 C84.39695766 100.9868121 83.56349468 103.74602127 82 110 C93.55 110.33 105.1 110.66 117 111 C117 117.93 117 124.86 117 132 C88.48074735 132.02258511 59.96149662 132.0404981 31.44223678 132.05106533 C28.07876006 132.0523161 24.71528334 132.05361042 21.35180664 132.05493164 C20.34735354 132.05532511 20.34735354 132.05532511 19.32260846 132.05572652 C8.46598331 132.06008324 -2.39063657 132.06797079 -13.2472586 132.0771528 C-24.37901486 132.08648929 -35.51076932 132.0919807 -46.64252955 132.09408849 C-52.89848604 132.09539602 -59.15443056 132.09848451 -65.41038322 132.10573006 C-71.29124963 132.1124864 -77.17209906 132.11461775 -83.05296898 132.11310768 C-85.21821434 132.11338418 -87.38346022 132.11539158 -89.54870224 132.11920547 C-92.49110253 132.12413669 -95.43343762 132.12300041 -98.37583923 132.12025452 C-99.24449881 132.12316736 -100.11315839 132.1260802 -101.00814098 132.12908131 C-106.88587879 132.11412121 -106.88587879 132.11412121 -108 131 C-108.08669432 129.5112814 -108.10703494 128.018555 -108.09765625 126.52734375 C-108.09282227 125.17866211 -108.09282227 125.17866211 -108.08789062 123.80273438 C-108.07951172 122.85720703 -108.07113281 121.91167969 -108.0625 120.9375 C-108.05798828 119.98810547 -108.05347656 119.03871094 -108.04882812 118.06054688 C-108.0370011 115.70696935 -108.02052025 113.35351523 -108 111 C-102.97716113 109.9848948 -98.19786627 109.86947409 -93.1015625 109.90234375 C-92.26660248 109.9037587 -91.43164246 109.90517365 -90.57138062 109.90663147 C-87.92254958 109.91219826 -85.2738052 109.92474453 -82.625 109.9375 C-80.82161581 109.9425193 -79.01823029 109.94708145 -77.21484375 109.95117188 C-72.80986279 109.9621568 -68.40494606 109.97939837 -64 110 C-64.495 105.545 -64.495 105.545 -65 101 C-67.97 101 -70.94 101 -74 101 C-74 98.69 -74 96.38 -74 94 C-86.21 94 -98.42 94 -111 94 C-110.67 93.01 -110.34 92.02 -110 91 C-97.46 91 -84.92 91 -72 91 C-72 90.34 -72 89.68 -72 89 C-79.59 88.67 -87.18 88.34 -95 88 C-95.33 86.68 -95.66 85.36 -96 84 C-86.76 84 -77.52 84 -68 84 C-67.34 82.68 -66.68 81.36 -66 80 C-63.9765625 78.1484375 -63.9765625 78.1484375 -61.625 76.375 C-60.46871094 75.48941406 -60.46871094 75.48941406 -59.2890625 74.5859375 C-57 73 -57 73 -54.8203125 71.984375 C-51.95674542 70.43583658 -51.25768142 67.89266727 -50 65 C-52.64 65 -55.28 65 -58 65 C-58.33 61.37 -58.66 57.74 -59 54 C-66.59 53.67 -74.18 53.34 -82 53 C-82 38.15 -82 23.3 -82 8 C-66.49 8 -50.98 8 -35 8 C-34.814375 13.960625 -34.62875 19.92125 -34.4375 26.0625 C-34.37618896 27.93043213 -34.31487793 29.79836426 -34.25170898 31.72290039 C-34.20769408 33.2228051 -34.16412634 34.72272303 -34.12109375 36.22265625 C-34.09438599 36.98574097 -34.06767822 37.74882568 -34.04016113 38.53503418 C-33.91428966 43.15950758 -34.21555133 47.43857628 -35 52 C-30.71 51.67 -26.42 51.34 -22 51 C-22.99 48.525 -22.99 48.525 -24 46 C-25.65308538 32.84492056 -22.14213896 16.68655739 -14 6 C-9.82165472 1.19892057 -6.62244503 -1.10374084 0 0 Z M1 22 C-2.71400426 30.26333114 -2.71400426 30.26333114 -3 39 C1.1306803 42.15638728 5.52408859 42.98591097 10.5 44 C15.50898207 45.02082882 19.79727475 45.89644904 24 49 C27.32211493 55.64422986 24.58492103 64.66539031 22.65625 71.37109375 C21.83853573 74.19522185 21.83853573 74.19522185 22 78 C21.34 78 20.68 78 20 78 C20 79.32 20 80.64 20 82 C23.3 82.66 26.6 83.32 30 84 C31.13136586 82.44210317 32.25482321 80.87846143 33.375 79.3125 C34.00148438 78.44238281 34.62796875 77.57226562 35.2734375 76.67578125 C39.59595574 69.97685592 39.85488802 64.0629214 38.2421875 56.3984375 C37.29020066 52.55480269 36.25327368 48.75660517 35 45 C34.77505859 44.20650146 34.55011719 43.41300293 34.31835938 42.59545898 C33.4510946 40.0548505 32.64077899 38.12988952 31 36 C27.73511205 34.52608929 24.54820011 34.29313301 21 34.0625 C19.20780013 33.89224101 17.41609696 33.71665054 15.625 33.53515625 C14.83351563 33.477229 14.04203125 33.41930176 13.2265625 33.35961914 C10.78520912 32.96530845 9.10591685 32.28641077 7 31 C5.515625 28.8359375 5.515625 28.8359375 4.25 26.375 C3.82203125 25.55773437 3.3940625 24.74046875 2.953125 23.8984375 C2.63859375 23.27195313 2.3240625 22.64546875 2 22 C1.67 22 1.34 22 1 22 Z M2 53 C1.67 56.63 1.34 60.26 1 64 C-0.093125 64.020625 -1.18625 64.04125 -2.3125 64.0625 C-6.24633041 64.61292791 -6.24633041 64.61292791 -7.9375 68.0625 C-9.86419045 73.9629895 -9.80304904 78.82832914 -7.125 84.375 C-5.88791344 86.67506465 -4.86781078 88.13218922 -3 90 C-0.10116917 90.24339551 -0.10116917 90.24339551 3.125 90.125 C4.76855469 90.09792969 4.76855469 90.09792969 6.4453125 90.0703125 C7.28835938 90.04710937 8.13140625 90.02390625 9 90 C9.99 86.37 10.98 82.74 12 79 C11.34 78.34 10.68 77.68 10 77 C10.28067379 75.6545963 10.62783008 74.32301868 11 73 C11.14230141 70.85726916 11.22021164 68.70974423 11.25 66.5625 C11.27578125 65.45003906 11.3015625 64.33757812 11.328125 63.19140625 C10.96244699 59.63475229 10.17910756 57.81109931 8 55 C4.92438754 53.64019119 4.92438754 53.64019119 2 53 Z M33 95 C32.34306152 96.21562622 32.34306152 96.21562622 31.67285156 97.45581055 C27.42729669 101.49699865 22.8873488 100.72693752 17.234375 100.70703125 C16.08584045 100.72215256 14.93730591 100.73727386 13.75396729 100.75285339 C10.08578017 100.79583923 6.41841424 100.80457945 2.75 100.8125 C0.26299883 100.83563565 -2.22398268 100.86099902 -4.7109375 100.88867188 C-10.80736462 100.95163263 -16.90327631 100.98388281 -23 101 C-23.66 104.3 -24.32 107.6 -25 111 C-2.56 111 19.88 111 43 111 C42.505 107.535 42.505 107.535 42 104 C39 102.66666667 39 102.66666667 36 104 C35.34 101.03 34.68 98.06 34 95 C33.67 95 33.34 95 33 95 Z " fill="#2F94C8" transform="translate(253,174)"/>
<path d="M0 0 C7.34514719 3.24553015 10.20875914 10.04677986 13.09179688 17.09179688 C14.78296904 20.79494903 15.73081944 21.89150225 19.56640625 23.4375 C25.32301172 24.38056165 28.14882865 22.98533622 33 20 C36.34396265 18.89759473 39.4950876 18.86623772 43 18.875 C44.03125 18.87242187 45.0625 18.86984375 46.125 18.8671875 C49 19 49 19 53 20 C53 26.27 53 32.54 53 39 C45 38 45 38 43 37 C43.33322266 37.61931396 43.66644531 38.23862793 44.00976562 38.87670898 C45.52586704 41.72045934 47.01293661 44.57846534 48.5 47.4375 C49.02464844 48.41138672 49.54929687 49.38527344 50.08984375 50.38867188 C53.76849009 57.53097874 55.35854853 62.91083409 53.26171875 70.765625 C51.73739067 73.4650543 49.94692236 75.5016928 47.8125 77.75 C40.72680678 85.37486117 40.72680678 85.37486117 34.88600159 93.95675659 C32.90016851 97.15119258 31.38894385 99.57657221 27.68507385 100.70571899 C24.87547063 100.92546635 22.16727188 100.90046485 19.3515625 100.78125 C18.33903412 100.76993042 17.32650574 100.75861084 16.28329468 100.74694824 C13.06190563 100.70230474 9.84503398 100.60196373 6.625 100.5 C4.43626238 100.4598575 2.24745471 100.42335808 0.05859375 100.390625 C-5.2958017 100.30261123 -10.64757818 100.16889988 -16 100 C-16.12479736 98.90010742 -16.24959473 97.80021484 -16.37817383 96.66699219 C-16.55000345 95.21025228 -16.72213872 93.7535484 -16.89453125 92.296875 C-17.01640808 91.21188721 -17.01640808 91.21188721 -17.14074707 90.10498047 C-17.85593943 84.14561037 -18.64494552 78.6511969 -23.67578125 74.67578125 C-28.14452632 71.94860278 -32.17031568 70.86550225 -37.328125 70.90234375 C-38.52695313 70.90717773 -38.52695313 70.90717773 -39.75 70.91210938 C-40.575 70.92048828 -41.4 70.92886719 -42.25 70.9375 C-43.09046875 70.94201172 -43.9309375 70.94652344 -44.796875 70.95117188 C-46.86461401 70.96292039 -48.93231624 70.98085478 -51 71 C-50.67 69.02 -50.34 67.04 -50 65 C-52.64 65 -55.28 65 -58 65 C-58.33 61.37 -58.66 57.74 -59 54 C-70.385 53.505 -70.385 53.505 -82 53 C-82 38.15 -82 23.3 -82 8 C-66.49 8 -50.98 8 -35 8 C-34.814375 13.960625 -34.62875 19.92125 -34.4375 26.0625 C-34.37618896 27.93043213 -34.31487793 29.79836426 -34.25170898 31.72290039 C-34.20769408 33.2228051 -34.16412634 34.72272303 -34.12109375 36.22265625 C-34.09438599 36.98574097 -34.06767822 37.74882568 -34.04016113 38.53503418 C-33.91428966 43.15950758 -34.21555133 47.43857628 -35 52 C-28.565 51.505 -28.565 51.505 -22 51 C-22.66 49.35 -23.32 47.7 -24 46 C-25.65308538 32.84492056 -22.14213896 16.68655739 -14 6 C-9.82165472 1.19892057 -6.62244503 -1.10374084 0 0 Z M1 22 C-2.71400426 30.26333114 -2.71400426 30.26333114 -3 39 C1.1306803 42.15638728 5.52408859 42.98591097 10.5 44 C15.50898207 45.02082882 19.79727475 45.89644904 24 49 C27.32211493 55.64422986 24.58492103 64.66539031 22.65625 71.37109375 C21.83853573 74.19522185 21.83853573 74.19522185 22 78 C21.34 78 20.68 78 20 78 C20 79.32 20 80.64 20 82 C23.3 82.66 26.6 83.32 30 84 C31.13136586 82.44210317 32.25482321 80.87846143 33.375 79.3125 C34.00148438 78.44238281 34.62796875 77.57226562 35.2734375 76.67578125 C39.59595574 69.97685592 39.85488802 64.0629214 38.2421875 56.3984375 C37.29020066 52.55480269 36.25327368 48.75660517 35 45 C34.77505859 44.20650146 34.55011719 43.41300293 34.31835938 42.59545898 C33.4510946 40.0548505 32.64077899 38.12988952 31 36 C27.73511205 34.52608929 24.54820011 34.29313301 21 34.0625 C19.20780013 33.89224101 17.41609696 33.71665054 15.625 33.53515625 C14.83351563 33.477229 14.04203125 33.41930176 13.2265625 33.35961914 C10.78520912 32.96530845 9.10591685 32.28641077 7 31 C5.515625 28.8359375 5.515625 28.8359375 4.25 26.375 C3.82203125 25.55773437 3.3940625 24.74046875 2.953125 23.8984375 C2.63859375 23.27195313 2.3240625 22.64546875 2 22 C1.67 22 1.34 22 1 22 Z M2 53 C1.67 56.63 1.34 60.26 1 64 C-0.093125 64.020625 -1.18625 64.04125 -2.3125 64.0625 C-6.24633041 64.61292791 -6.24633041 64.61292791 -7.9375 68.0625 C-9.86419045 73.9629895 -9.80304904 78.82832914 -7.125 84.375 C-5.88791344 86.67506465 -4.86781078 88.13218922 -3 90 C-0.10116917 90.24339551 -0.10116917 90.24339551 3.125 90.125 C4.76855469 90.09792969 4.76855469 90.09792969 6.4453125 90.0703125 C7.28835938 90.04710937 8.13140625 90.02390625 9 90 C9.99 86.37 10.98 82.74 12 79 C11.34 78.34 10.68 77.68 10 77 C10.28067379 75.6545963 10.62783008 74.32301868 11 73 C11.14230141 70.85726916 11.22021164 68.70974423 11.25 66.5625 C11.27578125 65.45003906 11.3015625 64.33757812 11.328125 63.19140625 C10.96244699 59.63475229 10.17910756 57.81109931 8 55 C4.92438754 53.64019119 4.92438754 53.64019119 2 53 Z " fill="#0F51AE" transform="translate(253,174)"/>
<path d="M0 0 C15.51 0 31.02 0 47 0 C47.185625 5.960625 47.37125 11.92125 47.5625 18.0625 C47.62381104 19.93043213 47.68512207 21.79836426 47.74829102 23.72290039 C47.79230592 25.2228051 47.83587366 26.72272303 47.87890625 28.22265625 C47.90561401 28.98574097 47.93232178 29.74882568 47.95983887 30.53503418 C48.08571034 35.15950758 47.78444867 39.43857628 47 44 C49.12534659 43.85930804 51.25027529 43.71229079 53.375 43.5625 C54.55835938 43.48128906 55.74171875 43.40007812 56.9609375 43.31640625 C59.91518901 43.18915064 59.91518901 43.18915064 62 42 C62 42.66 62 43.32 62 44 C69.59 44 77.18 44 85 44 C84.125 55.875 84.125 55.875 83 57 C80.66702567 57.04092937 78.33294775 57.04241723 76 57 C75.34 59.31 74.68 61.62 74 64 C73.67 64 73.34 64 73 64 C73 62.02 73 60.04 73 58 C53.2 57.505 53.2 57.505 33 57 C32.505 57.99 32.505 57.99 32 59 C32 58.34 32 57.68 32 57 C29.36 57 26.72 57 24 57 C23.67 53.37 23.34 49.74 23 46 C11.615 45.505 11.615 45.505 0 45 C0 30.15 0 15.3 0 0 Z " fill="#43B8FC" transform="translate(171,182)"/>
<path d="M0 0 C0.495 0.99 0.495 0.99 1 2 C1.66 1.67 2.32 1.34 3 1 C12.98143045 0.40613915 21.09077725 0.32315029 29.8125 5.75 C36.64746337 12.78024804 36 21.80681488 36 31 C50.85 31 65.7 31 81 31 C81 31.33 81 31.66 81 32 C63.84 32 46.68 32 29 32 C28.67 33.32 28.34 34.64 28 36 C28 34.35 28 32.7 28 31 C24.7 31 21.4 31 18 31 C17.9071875 32.36125 17.9071875 32.36125 17.8125 33.75 C17 37 17 37 14.875 39.3125 C11.41135543 41.34550877 9.01369127 41.92832694 5 42 C1.31745165 40.57719723 0.20777167 39.35106248 -1.8125 35.9375 C-3 33 -3 33 -3 31 C-3.61746094 31.0721875 -4.23492187 31.144375 -4.87109375 31.21875 C-10.62108387 31.8488859 -16.21646559 32.09328281 -22 32 C-22 29.69 -22 27.38 -22 25 C-34.21 25 -46.42 25 -59 25 C-58.505 23.515 -58.505 23.515 -58 22 C-45.46 22 -32.92 22 -20 22 C-20 21.34 -20 20.68 -20 20 C-27.59 19.67 -35.18 19.34 -43 19 C-43.33 17.68 -43.66 16.36 -44 15 C-34.76 15 -25.52 15 -16 15 C-15.34 13.68 -14.68 12.36 -14 11 C-11.9765625 9.1484375 -11.9765625 9.1484375 -9.625 7.375 C-8.85414063 6.78460938 -8.08328125 6.19421875 -7.2890625 5.5859375 C-5 4 -5 4 -2.7734375 2.9140625 C-0.81744385 2.12667794 -0.81744385 2.12667794 0 0 Z " fill="#5575FB" transform="translate(201,243)"/>
<path d="M0 0 C7.34514719 3.24553015 10.20875914 10.04677986 13.09179688 17.09179688 C14.77792625 20.78390686 15.71899385 21.88765944 19.546875 23.41796875 C22.46671573 23.91011385 25.0525617 24.17863262 28 24 C28 24.66 28 25.32 28 26 C29.670625 25.9071875 29.670625 25.9071875 31.375 25.8125 C33.169375 25.9053125 33.169375 25.9053125 35 26 C37 29 37 29 36.9375 31.5 C36 34 36 34 34.06640625 35.7265625 C29.50830469 37.61948111 25.76886377 36.70436761 21 35.875 C20.11054688 35.74351562 19.22109375 35.61203125 18.3046875 35.4765625 C13.66933103 34.72937071 9.7323962 34.03934004 6 31 C4.63671875 28.95703125 4.63671875 28.95703125 3.6875 26.8125 C3.36136719 26.09707031 3.03523438 25.38164062 2.69921875 24.64453125 C2.46847656 24.10183594 2.23773438 23.55914062 2 23 C1.34865075 24.56020867 0.70417036 26.12328579 0.0625 27.6875 C-0.29714844 28.55761719 -0.65679687 29.42773438 -1.02734375 30.32421875 C-1.9570312 32.88179265 -2.54162625 35.3221323 -3 38 C-3.33 37.34 -3.66 36.68 -4 36 C-5.918125 36.0309375 -5.918125 36.0309375 -7.875 36.0625 C-12.97179862 36.07060302 -17.93741658 35.57043194 -23 35 C-23 38.63 -23 42.26 -23 46 C-23.33 46 -23.66 46 -24 46 C-24.96641871 32.44866211 -22.46101218 17.10507849 -14 6 C-9.82165472 1.19892057 -6.62244503 -1.10374084 0 0 Z " fill="#5675F9" transform="translate(253,174)"/>
<path d="M0 0 C3 3.625 3 3.625 3 7 C4.2684375 7.12955078 4.2684375 7.12955078 5.5625 7.26171875 C13.95914546 8.30175779 20.33505923 9.76241224 26 16.3125 C26.33 16.869375 26.66 17.42625 27 18 C23.25 21 23.25 21 21 21 C21 21.66 21 22.32 21 23 C21.99 23.33 22.98 23.66 24 24 C21 25 21 25 18.75 24.3125 C14.56973451 23.83746983 12.48170084 25.74713475 9 28 C9.928125 28.433125 10.85625 28.86625 11.8125 29.3125 C16.58385093 31.83850932 16.58385093 31.83850932 18 34 C18.96538304 38.27526773 19.4840324 40.71873776 17.9375 44.8125 C15.4853383 47.58106966 13.48916865 48.76852871 10 50 C5.11030953 49.9002104 2.51997102 48.31882982 -1 45 C-2.60725635 41.78548731 -2.05748185 38.56387464 -2 35 C-3.46313772 35.76167457 -4.92036661 36.53470707 -6.375 37.3125 C-7.18710937 37.74175781 -7.99921875 38.17101562 -8.8359375 38.61328125 C-11.26834043 39.96778724 -11.26834043 39.96778724 -13 43 C-15.625 43.6875 -15.625 43.6875 -18 44 C-18.72455635 42.35767228 -19.37774395 40.68375165 -20 39 C-20.37125 38.0925 -20.7425 37.185 -21.125 36.25 C-20.94519484 31.57506578 -18.5742164 29.79513951 -15.40625 26.515625 C-12.81788367 23.80960566 -10.47498 20.97708558 -8.125 18.0625 C-4.19708029 13.19708029 -4.19708029 13.19708029 -2 11 C-1.31822002 8.34280163 -1.31822002 8.34280163 -0.875 5.375 C-0.70742188 4.37210938 -0.53984375 3.36921875 -0.3671875 2.3359375 C-0.24601562 1.56507813 -0.12484375 0.79421875 0 0 Z " fill="#5374F9" transform="translate(307,235)"/>
<path d="M0 0 C5.05370732 -0.02474322 10.10737926 -0.04288053 15.16113281 -0.05493164 C16.87988906 -0.0599563 18.59864105 -0.0667771 20.31738281 -0.07543945 C22.78972426 -0.0875868 25.26200912 -0.09324703 27.734375 -0.09765625 C28.50118591 -0.10281754 29.26799683 -0.10797882 30.05804443 -0.11329651 C33.54849615 -0.11366245 36.64274473 0.06247262 40 1 C40.02578125 1.9178125 40.0515625 2.835625 40.078125 3.78125 C40.45353358 14.77758893 40.45353358 14.77758893 46 24 C50.40995956 24.28279958 54.83206143 24.23187512 59.25 24.25 C61.11205078 24.2809375 61.11205078 24.2809375 63.01171875 24.3125 C64.20925781 24.31765625 65.40679687 24.3228125 66.640625 24.328125 C67.73922852 24.3374707 68.83783203 24.34681641 69.96972656 24.35644531 C73.34890113 23.95895942 75.24146902 22.94109356 78 21 C78.99 21.99 78.99 21.99 80 23 C80.66 23.33 81.32 23.66 82 24 C82 25.32 82 26.64 82 28 C81.34 28 80.68 28 80 28 C79.34 30.31 78.68 32.62 78 35 C63.15 35 48.3 35 33 35 C32.34 29.72 31.68 24.44 31 19 C29.27310493 14.13911017 27.8654472 11.22663801 23.5 8.5625 C19.35837461 6.7135601 16.18729747 5.87009073 11.671875 5.90234375 C10.47304687 5.90717773 10.47304687 5.90717773 9.25 5.91210938 C8.425 5.92048828 7.6 5.92886719 6.75 5.9375 C5.90953125 5.94201172 5.0690625 5.94652344 4.203125 5.95117188 C2.13538599 5.96292039 0.06768376 5.98085478 -2 6 C-2 4.68 -2 3.36 -2 2 C-1.34 2 -0.68 2 0 2 C0 1.34 0 0.68 0 0 Z " fill="#064BAC" transform="translate(204,239)"/>
<path d="M0 0 C4.96670031 -0.06995353 9.91816489 -0.10464877 14.875 0.25 C15.57367188 0.29640625 16.27234375 0.3428125 16.9921875 0.390625 C19 1 19 1 20.8046875 2.91796875 C23.73957039 5.7014075 26.33449048 6.14703168 30.25 7.0625 C31.59439248 7.39454484 32.93815254 7.72916134 34.28125 8.06640625 C35.5084375 8.37449219 36.735625 8.68257812 38 9 C42.82841396 10.41302115 46.31298099 11.5295613 49 16 C50.74718415 25.0035075 47.41795761 34.39682045 45 43 C41.7 43 38.4 43 35 43 C34.94392578 41.24623047 34.94392578 41.24623047 34.88671875 39.45703125 C34.8210372 37.90882325 34.75459061 36.36064758 34.6875 34.8125 C34.65366211 33.65911133 34.65366211 33.65911133 34.61914062 32.48242188 C34.40312752 27.90687162 34.02665586 24.65470366 31 21 C27.40711135 18.4601994 24.86029825 17.61062286 20.48046875 17.48828125 C19.45888672 17.45283203 18.43730469 17.41738281 17.38476562 17.38085938 C15.80211914 17.34702148 15.80211914 17.34702148 14.1875 17.3125 C13.11306641 17.27833984 12.03863281 17.24417969 10.93164062 17.20898438 C8.28786467 17.12673357 5.64441079 17.05750791 3 17 C3 16.34 3 15.68 3 15 C2.01 14.67 1.02 14.34 0 14 C0 9.38 0 4.76 0 0 Z " fill="#0B4FAC" transform="translate(230,209)"/>
<path d="M0 0 C-0.14033111 1.97956441 -0.2874123 3.95865141 -0.4375 5.9375 C-0.51871094 7.03964844 -0.59992188 8.14179688 -0.68359375 9.27734375 C-1 12 -1 12 -2 13 C-4.33297433 13.04092937 -6.66705225 13.04241723 -9 13 C-9.66 15.31 -10.32 17.62 -11 20 C-11.33 20 -11.66 20 -12 20 C-12 18.02 -12 16.04 -12 14 C-13.16982422 13.97494385 -14.33964844 13.9498877 -15.54492188 13.92407227 C-19.91350982 13.82941271 -24.28196028 13.72933847 -28.65039062 13.62768555 C-30.53577442 13.58455691 -32.42119174 13.54286778 -34.30664062 13.50268555 C-37.02744624 13.4444442 -39.74808648 13.38090932 -42.46875 13.31640625 C-43.30241089 13.29969376 -44.13607178 13.28298126 -44.99499512 13.26576233 C-50.0623355 13.13946145 -54.97993382 12.70815191 -60 12 C-60 8.37 -60 4.74 -60 1 C-19.17297641 -0.19388403 -19.17297641 -0.19388403 0 0 Z " fill="#5072F5" transform="translate(256,226)"/>
<path d="M0 0 C2.78265006 1.30550498 4.17373546 3.13058451 5.44140625 5.91015625 C6.82909861 10.34074029 8.01000307 14.87569487 6.09765625 19.25 C5.76507813 19.82105469 5.4325 20.39210938 5.08984375 20.98046875 C4.42984375 20.98046875 3.76984375 20.98046875 3.08984375 20.98046875 C3.24453125 22.31078125 3.24453125 22.31078125 3.40234375 23.66796875 C3.08984375 26.98046875 3.08984375 26.98046875 0.71484375 29.85546875 C-1.91015625 31.98046875 -1.91015625 31.98046875 -3.91015625 31.98046875 C-3.91015625 32.64046875 -3.91015625 33.30046875 -3.91015625 33.98046875 C-5.23015625 33.98046875 -6.55015625 33.98046875 -7.91015625 33.98046875 C-7.91015625 34.64046875 -7.91015625 35.30046875 -7.91015625 35.98046875 C-15.34394568 36.31498927 -21.1089278 36.11949727 -27.91015625 32.98046875 C-27.91015625 32.32046875 -27.91015625 31.66046875 -27.91015625 30.98046875 C-28.57015625 30.98046875 -29.23015625 30.98046875 -29.91015625 30.98046875 C-32.9450165 27.43979846 -34.7227078 23.83119632 -35.72265625 19.29296875 C-34.79051801 15.49271286 -34.25196652 15.13656522 -31.09765625 13.10546875 C-28.6972083 11.78500376 -26.52084879 10.8506996 -23.91015625 9.98046875 C-23.99716797 10.86798828 -23.99716797 10.86798828 -24.0859375 11.7734375 C-24.33622703 16.15707984 -24.39350529 18.29809364 -21.78515625 21.98046875 C-18.571053 24.21636666 -16.81013711 24.9008773 -12.91015625 24.98046875 C-9.65030315 24.50537659 -9.65030315 24.50537659 -6.91015625 22.98046875 C-4.84733851 19.931086 -4.7967271 17.4142831 -5.09765625 13.85546875 C-5.63299672 10.17591683 -5.63299672 10.17591683 -7.09765625 8.10546875 C-9.57227123 6.56950083 -12.12289142 5.78567859 -14.91015625 4.98046875 C-10.28563922 -0.13083955 -6.73156422 -1.84809999 0 0 Z " fill="#024CAD" transform="translate(329.91015625,259.01953125)"/>
<path d="M0 0 C3.10748979 1.33534702 5.44902904 2.89805808 7 6 C9.97 6 12.94 6 16 6 C16 6.99 16 7.98 16 9 C13.36 9.33 10.72 9.66 8 10 C8.103125 11.19625 8.20625 12.3925 8.3125 13.625 C8.31842325 16.96571273 7.8592028 18.76913476 5.75 21.375 C2.13422381 24.82642273 0.59585976 25.85223521 -4.375 26.3125 C-9.8087627 25.84407218 -12.76002316 24.40313168 -16.375 20.3125 C-18.49783872 15.98517492 -18.53204782 13.78843042 -18 9 C-14.43995741 0.75569085 -8.47042288 -1.38016475 0 0 Z " fill="#43B6F9" transform="translate(260,145)"/>
<path d="M0 0 C3.3 0 6.6 0 10 0 C10.91145833 2.01822917 11.82291667 4.03645833 12.734375 6.0546875 C14.25673354 8.39460896 15.38448742 9.0806375 18 10 C22.49441279 9.75922789 25.8617172 9.37074819 29 6 C30.28008262 2.91222828 30.28008262 2.91222828 31 0 C34.3 0 37.6 0 41 0 C41.28571429 8.57142857 41.28571429 8.57142857 39 12 C38.34 12 37.68 12 37 12 C36.79375 12.5775 36.5875 13.155 36.375 13.75 C34.20485402 17.30114796 30.95367391 19.21853043 27.125 20.75 C20.62110736 21.51516384 14.69139996 21.53108052 9 18 C5.56792556 14.74102149 2.13190731 11.26381462 0 7 C-0.04022391 4.6670134 -0.04320247 2.33293334 0 0 Z " fill="#024CAC" transform="translate(188,274)"/>
<path d="M0 0 C0.87935211 0.00141495 1.75870422 0.0028299 2.66470337 0.00428772 C5.45619192 0.00985748 8.24759844 0.02240435 11.0390625 0.03515625 C12.93880092 0.04017516 14.8385406 0.04473738 16.73828125 0.04882812 C21.38023964 0.059817 26.02213719 0.07706068 30.6640625 0.09765625 C31.9840625 2.40765625 33.3040625 4.71765625 34.6640625 7.09765625 C33.6740625 7.09765625 32.6840625 7.09765625 31.6640625 7.09765625 C31.0040625 6.10765625 30.3440625 5.11765625 29.6640625 4.09765625 C26.80168978 3.81826969 24.15865884 3.72581921 21.296875 3.76953125 C20.46574188 3.77140442 19.63460876 3.77327759 18.77828979 3.77520752 C17.01800535 3.78193664 15.25773608 3.79586817 13.49755859 3.81640625 C10.80682426 3.84745132 8.11667661 3.85736611 5.42578125 3.86328125 C3.71613872 3.87245597 2.00650213 3.88283322 0.296875 3.89453125 C-0.90955154 3.90090607 -0.90955154 3.90090607 -2.14035034 3.90740967 C-5.76174009 3.95355188 -8.79969914 4.21359666 -12.3359375 5.09765625 C-12.6659375 9.71765625 -12.9959375 14.33765625 -13.3359375 19.09765625 C4.4840625 19.09765625 22.3040625 19.09765625 40.6640625 19.09765625 C40.6640625 19.42765625 40.6640625 19.75765625 40.6640625 20.09765625 C96.4340625 20.42765625 152.2040625 20.75765625 209.6640625 21.09765625 C209.6640625 21.42765625 209.6640625 21.75765625 209.6640625 22.09765625 C181.14481015 22.12044647 152.62555895 22.13815435 124.10629928 22.14872158 C120.74282256 22.14997235 117.37934584 22.15126667 114.01586914 22.15258789 C113.01141604 22.15298136 113.01141604 22.15298136 111.98667096 22.15338277 C101.13004581 22.15773949 90.27342593 22.16562704 79.4168039 22.17480905 C68.28504764 22.18414554 57.15329318 22.18963695 46.02153295 22.19174474 C39.76557646 22.19305227 33.50963194 22.19614076 27.25367928 22.20338631 C21.37281287 22.21014265 15.49196344 22.212274 9.61109352 22.21076393 C7.44584816 22.21104043 5.28060228 22.21304783 3.11536026 22.21686172 C0.17295997 22.22179294 -2.76937512 22.22065666 -5.71177673 22.21791077 C-6.58043631 22.22082361 -7.44909589 22.22373645 -8.34407848 22.22673756 C-14.22181629 22.21177746 -14.22181629 22.21177746 -15.3359375 21.09765625 C-15.42263182 19.60893765 -15.44297244 18.11621125 -15.43359375 16.625 C-15.43037109 15.72587891 -15.42714844 14.82675781 -15.42382812 13.90039062 C-15.41544922 12.95486328 -15.40707031 12.00933594 -15.3984375 11.03515625 C-15.39392578 10.08576172 -15.38941406 9.13636719 -15.38476562 8.15820312 C-15.3729386 5.8046256 -15.35645775 3.45117148 -15.3359375 1.09765625 C-10.17525259 0.04289109 -5.23881743 -0.0320374 0 0 Z " fill="#97D8EA" transform="translate(160.3359375,283.90234375)"/>
<path d="M0 0 C0 6.27 0 12.54 0 19 C-8 18 -8 18 -10 17 C-10 19.97 -10 22.94 -10 26 C-10.66 26.33 -11.32 26.66 -12 27 C-12.14695312 26.44570312 -12.29390625 25.89140625 -12.4453125 25.3203125 C-13.14385866 23.06408869 -13.84908566 21.06574368 -15 19 C-18.04021368 17.40004618 -18.04021368 17.40004618 -21 17 C-20.319375 16.46375 -19.63875 15.9275 -18.9375 15.375 C-16.61740673 13.08837848 -16.61740673 13.08837848 -17.25 9.75 C-17.4975 8.8425 -17.745 7.935 -18 7 C-20.31 6.67 -22.62 6.34 -25 6 C-24.70703125 4.109375 -24.70703125 4.109375 -24 2 C-16.46325902 -1.98167448 -8.18499606 -2.04624902 0 0 Z " fill="#074CA9" transform="translate(306,194)"/>
<path d="M0 0 C2.62195076 1.68073767 3.66412668 2.88508717 4.5625 5.8671875 C5.18797494 9.32033037 5.19035684 11.49611425 3.9375 14.8125 C1.4853383 17.58106966 -0.51083135 18.76852871 -4 20 C-8.88969047 19.9002104 -11.48002898 18.31882982 -15 15 C-16.57455739 11.85088521 -16.34799118 9.47991184 -16 6 C-12.13036105 -0.72331091 -7.28474822 -1.85056104 0 0 Z " fill="#38B3FD" transform="translate(321,265)"/>
<path d="M0 0 C9.24 0 18.48 0 28 0 C27.34 0.66 26.68 1.32 26 2 C31.61 2.33 37.22 2.66 43 3 C43 3.33 43 3.66 43 4 C39.7 4.33 36.4 4.66 33 5 C32.67 6.65 32.34 8.3 32 10 C29.03 10 26.06 10 23 10 C23 11.98 23 13.96 23 16 C25.64 16 28.28 16 31 16 C31 16.33 31 16.66 31 17 C28.03 17 25.06 17 22 17 C22 14.69 22 12.38 22 10 C9.79 10 -2.42 10 -15 10 C-14.67 9.01 -14.34 8.02 -14 7 C-1.46 7 11.08 7 24 7 C24 6.34 24 5.68 24 5 C16.41 4.67 8.82 4.34 1 4 C0.67 2.68 0.34 1.36 0 0 Z " fill="#8AC1F2" transform="translate(157,258)"/>
<path d="M0 0 C3.44065031 1.82191916 4.86775548 4.48567073 5.984375 8.05078125 C7.10689281 13.02671841 7.61869684 16.52750769 4.984375 21.05078125 C4.324375 21.05078125 3.664375 21.05078125 2.984375 21.05078125 C2.984375 23.03078125 2.984375 25.01078125 2.984375 27.05078125 C2.654375 27.05078125 2.324375 27.05078125 1.984375 27.05078125 C1.736875 25.93703125 1.489375 24.82328125 1.234375 23.67578125 C0.821875 22.47953125 0.409375 21.28328125 -0.015625 20.05078125 C-0.67175781 19.73753906 -1.32789063 19.42429687 -2.00390625 19.1015625 C-4.015625 18.05078125 -4.015625 18.05078125 -4.88671875 15.9921875 C-5.16708984 14.81462891 -5.16708984 14.81462891 -5.453125 13.61328125 C-6.55440584 9.79099528 -6.55440584 9.79099528 -9.515625 7.11328125 C-10.340625 6.76265625 -11.165625 6.41203125 -12.015625 6.05078125 C-13.005625 5.39078125 -13.995625 4.73078125 -15.015625 4.05078125 C-10.02698629 0.00006099 -6.36574 -1.96459907 0 0 Z " fill="#024BAA" transform="translate(330.015625,258.94921875)"/>
<path d="M0 0 C11.88 0 23.76 0 36 0 C36 6.6 36 13.2 36 20 C8.94 20 -18.12 20 -46 20 C-46 19.67 -46 19.34 -46 19 C-41.80219032 17.97996941 -37.75007717 17.8641857 -33.45581055 17.88647461 C-32.71380905 17.88632858 -31.97180756 17.88618256 -31.20732117 17.8860321 C-28.7670901 17.88672596 -26.3269364 17.8944936 -23.88671875 17.90234375 C-22.18992657 17.9042098 -20.49313385 17.90563282 -18.79634094 17.90663147 C-14.3395335 17.9104419 -9.88275887 17.92025957 -5.42596436 17.93133545 C-0.87447554 17.9415813 3.67701859 17.94613588 8.22851562 17.95117188 C17.15236045 17.96188319 26.07617236 17.97946803 35 18 C35 12.72 35 7.44 35 2 C17.675 2.495 17.675 2.495 0 3 C0 2.01 0 1.02 0 0 Z " fill="#1B62A7" transform="translate(334,285)"/>
<path d="M0 0 C2.26581542 1.4717685 3.34990618 2.79987491 5 5 C4.67 5.66 4.34 6.32 4 7 C3.34 6.67 2.68 6.34 2 6 C2 6.66 2 7.32 2 8 C2.66 8 3.32 8 4 8 C4 8.66 4 9.32 4 10 C1.43850372 10.50567729 -1.12399465 11.00470132 -3.6875 11.5 C-4.40873047 11.64308594 -5.12996094 11.78617188 -5.87304688 11.93359375 C-9.63841359 12.65571887 -13.14473813 13.1824976 -17 13 C-17.46956322 9.64597701 -17.73936742 7.10306919 -15.79296875 4.19921875 C-11.16438475 -0.34264705 -6.31770384 -1.48337979 0 0 Z " fill="#024BAC" transform="translate(260,145)"/>
<path d="M0 0 C0.33 0 0.66 0 1 0 C1.19561869 2.0825867 1.38119313 4.16611856 1.5625 6.25 C1.66691406 7.41015625 1.77132813 8.5703125 1.87890625 9.765625 C1.98198087 12.51871477 1.86213473 14.419982 1 17 C3.64 17 6.28 17 9 17 C9 18.32 9 19.64 9 21 C10.62414378 21.19477739 12.24936423 21.38059458 13.875 21.5625 C14.77992188 21.66691406 15.68484375 21.77132813 16.6171875 21.87890625 C19.01653057 22.19674852 19.01653057 22.19674852 21 21 C20.9375 22.75 20.9375 22.75 20 25 C13.61101406 30.47627366 5.93095824 29.36745752 -2 29 C-1.83242188 28.22914063 -1.66484375 27.45828125 -1.4921875 26.6640625 C-1.28851563 25.66117187 -1.08484375 24.65828125 -0.875 23.625 C-0.66617187 22.62726563 -0.45734375 21.62953125 -0.2421875 20.6015625 C-0.16226562 19.74304688 -0.08234375 18.88453125 0 18 C-0.66 17.34 -1.32 16.68 -2 16 C-1.81864449 13.23286597 -1.5356614 10.6080224 -1.125 7.875 C-1.02058594 7.12089844 -0.91617187 6.36679688 -0.80859375 5.58984375 C-0.54895402 3.72515844 -0.27574971 1.86237113 0 0 Z " fill="#5878F4" transform="translate(264,235)"/>
<path d="M0 0 C6.6 0 13.2 0 20 0 C19 6 19 6 16.875 8.3125 C13.41135543 10.34550877 11.01369127 10.92832694 7 11 C3.42612398 9.41161066 2.18910428 8.28365642 0 5 C0 3.35 0 1.7 0 0 Z " fill="#3CAFFD" transform="translate(199,274)"/>
<path d="M0 0 C0.639375 0.474375 1.27875 0.94875 1.9375 1.4375 C5.92181519 3.47031387 9.58494074 3.7210529 14 4 C14 4.66 14 5.32 14 6 C15.11375 5.938125 16.2275 5.87625 17.375 5.8125 C19.169375 5.9053125 19.169375 5.9053125 21 6 C23 9 23 9 22.9375 11.5 C22 14 22 14 20.0703125 15.73046875 C15.49153631 17.62372862 11.72012249 16.6641999 6.9375 15.8125 C6.03966797 15.67263672 5.14183594 15.53277344 4.21679688 15.38867188 C0.09614301 14.71159789 -3.31055841 14.02480256 -7 12 C-7 11.67 -7 11.34 -7 11 C-5.52093108 10.97310784 -4.04172517 10.95365379 -2.5625 10.9375 C-1.73878906 10.92589844 -0.91507812 10.91429687 -0.06640625 10.90234375 C2 11 2 11 3 12 C4.51469448 12.23192865 6.03754562 12.41215238 7.5625 12.5625 C8.38878906 12.64628906 9.21507812 12.73007813 10.06640625 12.81640625 C10.70449219 12.87699219 11.34257812 12.93757812 12 13 C12 11.02 12 9.04 12 7 C11.38511719 6.95101562 10.77023437 6.90203125 10.13671875 6.8515625 C8.92435547 6.73941406 8.92435547 6.73941406 7.6875 6.625 C6.88699219 6.55539063 6.08648437 6.48578125 5.26171875 6.4140625 C3 6 3 6 0 4 C0 2.68 0 1.36 0 0 Z " fill="#6999EE" transform="translate(267,194)"/>
<path d="M0 0 C-0.33 0.99 -0.66 1.98 -1 3 C-19.15 3 -37.3 3 -56 3 C-56.33 2.01 -56.66 1.02 -57 0 C-37.88988536 -0.92773674 -19.11285565 -0.97521339 0 0 Z " fill="#83C4E1" transform="translate(178,249)"/>
<path d="M0 0 C-0.33 0.99 -0.66 1.98 -1 3 C-18.49 3 -35.98 3 -54 3 C-54.33 2.01 -54.66 1.02 -55 0 C-48.29241696 -0.16887586 -41.58466054 -0.32864135 -34.87670898 -0.48217773 C-32.59638597 -0.53543437 -30.31611006 -0.59075004 -28.03588867 -0.64819336 C-24.75189363 -0.73056183 -21.46779856 -0.80544066 -18.18359375 -0.87890625 C-16.66287514 -0.91945885 -16.66287514 -0.91945885 -15.11143494 -0.96083069 C-9.93638526 -1.06911054 -5.09679053 -0.92357949 0 0 Z " fill="#76C2EC" transform="translate(168,215)"/>
<path d="M0 0 C0.39832031 0.49113281 0.79664063 0.98226562 1.20703125 1.48828125 C3.5121755 3.43183425 4.7196719 3.316536 7.6875 3.1875 C8.89986328 3.14689453 8.89986328 3.14689453 10.13671875 3.10546875 C11.05904297 3.05326172 11.05904297 3.05326172 12 3 C12 3.99 12 4.98 12 6 C9.36 6.33 6.72 6.66 4 7 C4.103125 8.19625 4.20625 9.3925 4.3125 10.625 C4.31842325 13.96571273 3.8592028 15.76913476 1.75 18.375 C-1.95390723 21.91054781 -3.44438238 22.89083385 -8.5625 23.25 C-12 23 -12 23 -15 21 C-11.535 20.505 -11.535 20.505 -8 20 C-7.938125 19.05125 -7.87625 18.1025 -7.8125 17.125 C-7.4103125 15.578125 -7.4103125 15.578125 -7 14 C-4.4375 12.625 -4.4375 12.625 -2 12 C-2.33 10.35 -2.66 8.7 -3 7 C-2.01 7 -1.02 7 0 7 C0 6.34 0 5.68 0 5 C-0.66 5 -1.32 5 -2 5 C-2 4.34 -2 3.68 -2 3 C-1.34 2.67 -0.68 2.34 0 2 C0 1.34 0 0.68 0 0 Z " fill="#3BB4F9" transform="translate(264,148)"/>
<path d="M0 0 C11.88 0 23.76 0 36 0 C36 1.32 36 2.64 36 4 C24.45 4 12.9 4 1 4 C0.67 2.68 0.34 1.36 0 0 Z " fill="#8ECFEA" transform="translate(129,204)"/>
<path d="M0 0 C0 0.66 0 1.32 0 2 C-1.98 2.99 -1.98 2.99 -4 4 C-3.34 4.33 -2.68 4.66 -2 5 C-2 5.99 -2 6.98 -2 8 C-0.329375 7.9690625 -0.329375 7.9690625 1.375 7.9375 C5 8 5 8 7 9 C6.67 9.99 6.34 10.98 6 12 C-8.35716167 12.16502485 -22.65873091 11.65520257 -37 11 C-37 10.67 -37 10.34 -37 10 C-28.09 10 -19.18 10 -10 10 C-9.67 8.68 -9.34 7.36 -9 6 C-7.44140625 4.296875 -7.44140625 4.296875 -5.5625 2.75 C-4.63630859 1.96882812 -4.63630859 1.96882812 -3.69140625 1.171875 C-2 0 -2 0 0 0 Z " fill="#539CF1" transform="translate(195,249)"/>
<path d="M0 0 C12.54 0 25.08 0 38 0 C38 0.99 38 1.98 38 3 C25.172995 4.06259213 12.81368929 4.27228121 0 3 C0 2.01 0 1.02 0 0 Z " fill="#7BC4EE" transform="translate(151,239)"/>
<path d="M0 0 C6.93 0 13.86 0 21 0 C20.01 0.33 19.02 0.66 18 1 C18 4.3 18 7.6 18 11 C13.45083591 11 11.16798627 10.38932876 7 9 C7.66 8.67 8.32 8.34 9 8 C9 6.35 9 4.7 9 3 C4.545 2.01 4.545 2.01 0 1 C0 0.67 0 0.34 0 0 Z " fill="#4970EE" transform="translate(235,226)"/>
<path d="M0 0 C1.796875 1.53515625 1.796875 1.53515625 3 3 C2.01 3.495 2.01 3.495 1 4 C1 3.34 1 2.68 1 2 C0.01 2 -0.98 2 -2 2 C-2.433125 2.9590625 -2.433125 2.9590625 -2.875 3.9375 C-4 6 -4 6 -6 7 C-6 6.34 -6 5.68 -6 5 C-9.40320742 6.01176437 -10.75725331 6.64843582 -12.8125 9.625 C-13.204375 10.40875 -13.59625 11.1925 -14 12 C-13.34 12.33 -12.68 12.66 -12 13 C-13.65 13 -15.3 13 -17 13 C-17.46956322 9.64597701 -17.73936742 7.10306919 -15.79296875 4.19921875 C-11.20696843 -0.30086119 -6.27767217 -1.41576872 0 0 Z " fill="#1356AC" transform="translate(260,145)"/>
<path d="M0 0 C3.3 0 6.6 0 10 0 C9.25 9.75 9.25 9.75 7 12 C1.125 9.25 1.125 9.25 0 7 C-0.04022391 4.6670134 -0.04320247 2.33293334 0 0 Z " fill="#0E51AF" transform="translate(188,274)"/>
<path d="M0 0 C0.33 0.66 0.66 1.32 1 2 C3.12576782 2.46651207 3.12576782 2.46651207 5.5625 2.625 C6.38878906 2.69976562 7.21507812 2.77453125 8.06640625 2.8515625 C8.70449219 2.90054688 9.34257812 2.94953125 10 3 C10 4.98 10 6.96 10 9 C-0.18518519 9.40740741 -0.18518519 9.40740741 -5 7 C-5.9375 5 -5.9375 5 -6 3 C-5.67 2.34 -5.34 1.68 -5 1 C-2.4375 0.375 -2.4375 0.375 0 0 Z " fill="#5271FC" transform="translate(269,198)"/>
<path d="M0 0 C11.88 0 23.76 0 36 0 C36 6.6 36 13.2 36 20 C35.67 20 35.34 20 35 20 C35 14.06 35 8.12 35 2 C17.675 2.495 17.675 2.495 0 3 C0 2.01 0 1.02 0 0 Z " fill="#1A5397" transform="translate(334,285)"/>
<path d="M0 0 C0 3.99904969 -1.72586967 5.80200422 -4 9 C-8.455 7.02 -8.455 7.02 -13 5 C-8.76032334 0.76032334 -6.06010869 -1.90460559 0 0 Z " fill="#064DB3" transform="translate(328,259)"/>
<path d="M0 0 C2.875 -0.1875 2.875 -0.1875 6 0 C8 3 8 3 7.8125 5.5625 C7 8 7 8 4 10 C1.3125 9.625 1.3125 9.625 -1 9 C-0.67 8.34 -0.34 7.68 0 7 C0.04022391 4.6670134 0.04320247 2.33293334 0 0 Z " fill="#3FACF8" transform="translate(282,200)"/>
<path d="M0 0 C9.11451548 0.82570524 18.23124204 0.64454768 27.375 0.5625 C27.375 0.8925 27.375 1.2225 27.375 1.5625 C18.4714367 2.60204991 9.64167943 2.68178731 0.6875 2.625 C-0.70768067 2.61997028 -2.10286311 2.61541 -3.49804688 2.61132812 C-6.87374437 2.59964751 -10.24934826 2.58326833 -13.625 2.5625 C-9.88921378 -1.17328622 -4.9610851 -0.54157398 0 0 Z " fill="#4BABC9" transform="translate(213.625,302.4375)"/>
<path d="M0 0 C0.66 0 1.32 0 2 0 C2.02687279 1.81242052 2.04633715 3.62495233 2.0625 5.4375 C2.07410156 6.44683594 2.08570313 7.45617187 2.09765625 8.49609375 C2 11 2 11 1 12 C-1.33297433 12.04092937 -3.66705225 12.04241723 -6 12 C-6.33 12.66 -6.66 13.32 -7 14 C-7 13.34 -7 12.68 -7 12 C-13.93 11.505 -13.93 11.505 -21 11 C-21 10.67 -21 10.34 -21 10 C-18.62673685 9.60747556 -16.25312786 9.23572726 -13.875 8.875 C-13.20984375 8.76285156 -12.5446875 8.65070313 -11.859375 8.53515625 C-7.3307553 7.86918277 -4.21079903 8.22910321 0 10 C0 6.7 0 3.4 0 0 Z " fill="#7D97F1" transform="translate(253,227)"/>
<path d="M0 0 C0 6.27 0 12.54 0 19 C-0.33 19 -0.66 19 -1 19 C-1 13.06 -1 7.12 -1 1 C-5.95 1 -10.9 1 -16 1 C-16 1.66 -16 2.32 -16 3 C-20.455 3.495 -20.455 3.495 -25 4 C-18.41004823 -2.58995177 -8.6257461 -2.15643652 0 0 Z " fill="#8AB2D5" transform="translate(306,194)"/>
<path d="M0 0 C2.8125 0.0625 2.8125 0.0625 6 1 C7.4926041 3.27444434 8.14242011 5.37961699 9 8 C8.34 8.66 7.68 9.32 7 10 C6.01 9.67 5.02 9.34 4 9 C3.67 9.66 3.34 10.32 3 11 C2.01 7.37 1.02 3.74 0 0 Z " fill="#1255B0" transform="translate(285,211)"/>
<path d="M0 0 C0.66 0.33 1.32 0.66 2 1 C2.495 2.98 2.495 2.98 3 5 C-11.85 4.67 -26.7 4.34 -42 4 C-42 3.67 -42 3.34 -42 3 C-28.47 2.67 -14.94 2.34 -1 2 C-0.67 1.34 -0.34 0.68 0 0 Z " fill="#3687BD" transform="translate(296,283)"/>
<path d="M0 0 C0.78112279 2.53864908 0.98065416 4.30953345 0.8125 7 C0.76945544 10.03320661 0.76945544 10.03320661 2.4375 12.375 C6.20119538 14.76173366 9.65956893 14.33387931 14 14 C13.67 14.66 13.34 15.32 13 16 C8.66753218 17.18930489 6.71264782 17.37649319 2.6875 15.25 C0 13 0 13 -2 10 C-2.4516129 3.67741935 -2.4516129 3.67741935 0 0 Z " fill="#3BA6F6" transform="translate(307,268)"/>
<path d="M0 0 C0.33 0.66 0.66 1.32 1 2 C2.2375 1.814375 3.475 1.62875 4.75 1.4375 C7.87894367 0.96815845 9.95974333 1.21821971 13 2 C15.4138176 2.22117559 17.83114597 2.40572242 20.25 2.5625 C21.51328125 2.64628906 22.7765625 2.73007812 24.078125 2.81640625 C25.04234375 2.87699219 26.0065625 2.93757813 27 3 C27 3.33 27 3.66 27 4 C22.87536584 4.19622046 18.75028427 4.38050216 14.625 4.5625 C13.449375 4.61857422 12.27375 4.67464844 11.0625 4.73242188 C9.94101563 4.78076172 8.81953125 4.82910156 7.6640625 4.87890625 C6.10872803 4.94960327 6.10872803 4.94960327 4.52197266 5.02172852 C2 5 2 5 0 4 C0 2.68 0 1.36 0 0 Z " fill="#5EA9CA" transform="translate(227,283)"/>
<path d="M0 0 C3.44896308 3.79385939 5.02670507 6.95656262 6 12 C5.625 15.4375 5.625 15.4375 5 18 C4.67 18 4.34 18 4 18 C3.01 15.03 2.02 12.06 1 9 C0.34 9 -0.32 9 -1 9 C-0.67 6.03 -0.34 3.06 0 0 Z " fill="#4B7AB4" transform="translate(331,260)"/>
<path d="M0 0 C-0.33 0.99 -0.66 1.98 -1 3 C-1.66 2.67 -2.32 2.34 -3 2 C-5.9148537 1.84279903 -8.80939636 1.74144346 -11.7265625 1.68359375 C-12.58937836 1.66281265 -13.45219421 1.64203156 -14.34115601 1.62062073 C-17.10235493 1.55513966 -19.86365038 1.49624702 -22.625 1.4375 C-24.49480172 1.3943134 -26.36459362 1.35069907 -28.234375 1.30664062 C-32.82281728 1.19945976 -37.41135683 1.09818825 -42 1 C-42 0.67 -42 0.34 -42 0 C-37.14386526 -0.16856005 -32.28755291 -0.32901217 -27.4309082 -0.48217773 C-25.78109656 -0.53532451 -24.1313529 -0.5906298 -22.48168945 -0.64819336 C-20.10122331 -0.7308734 -17.72061524 -0.80561351 -15.33984375 -0.87890625 C-14.61039047 -0.90594131 -13.88093719 -0.93297638 -13.12937927 -0.96083069 C-8.62006503 -1.09025195 -4.44911819 -0.75811136 0 0 Z " fill="#77B3DA" transform="translate(168,215)"/>
<path d="M0 0 C1.57561912 3.15123823 0.69813146 5.62569792 0 9 C-1.4375 11.125 -1.4375 11.125 -3 13 C-3.33 13.86625 -3.66 14.7325 -4 15.625 C-5 18 -5 18 -8 20 C-6.305613 12.63010534 -4.01216835 6.42264103 0 0 Z " fill="#7589F1" transform="translate(239,180)"/>
<path d="M0 0 C3.22590345 1.53963574 5.60753646 3.35569819 8 6 C7 8 7 8 5 9 C2 4.25 2 4.25 2 2 C-1.63 2.33 -5.26 2.66 -9 3 C-9.33 3.99 -9.66 4.98 -10 6 C-10.99 5.67 -11.98 5.34 -13 5 C-8.65797607 0.76387909 -6.3324381 -0.92108191 0 0 Z " fill="#7E94EA" transform="translate(253,174)"/>
<path d="M0 0 C4.43715855 -0.14483042 8.87371277 -0.23391752 13.3125 -0.3125 C14.57513672 -0.35439453 15.83777344 -0.39628906 17.13867188 -0.43945312 C18.34716797 -0.45556641 19.55566406 -0.47167969 20.80078125 -0.48828125 C21.91622314 -0.51446533 23.03166504 -0.54064941 24.1809082 -0.56762695 C27 0 27 0 28.88745117 2.53051758 C29.43816284 3.75291138 29.43816284 3.75291138 30 5 C29.01 5 28.02 5 27 5 C26.34 4.01 25.68 3.02 25 2 C22.2799557 1.67106056 22.2799557 1.67106056 19.125 1.875 C12.67809308 2.03311812 6.41138031 1.64691405 0 1 C0 0.67 0 0.34 0 0 Z " fill="#54C1DC" transform="translate(165,286)"/>
<path d="M0 0 C0.39832031 0.49113281 0.79664063 0.98226562 1.20703125 1.48828125 C3.5121755 3.43183425 4.7196719 3.316536 7.6875 3.1875 C8.89986328 3.14689453 8.89986328 3.14689453 10.13671875 3.10546875 C10.75160156 3.07066406 11.36648438 3.03585938 12 3 C12 3.99 12 4.98 12 6 C6.06 6.495 6.06 6.495 0 7 C0 6.34 0 5.68 0 5 C-0.66 5 -1.32 5 -2 5 C-2 4.34 -2 3.68 -2 3 C-1.34 2.67 -0.68 2.34 0 2 C0 1.34 0 0.68 0 0 Z " fill="#5381BC" transform="translate(264,148)"/>
<path d="M0 0 C0.33 0.99 0.66 1.98 1 3 C1.99 3.33 2.98 3.66 4 4 C3.52797514 8.24822374 1.03344482 10.19989709 -2 13 C-2.66 12.01 -3.32 11.02 -4 10 C-2.68 9.34 -1.36 8.68 0 8 C-0.37125 7.236875 -0.7425 6.47375 -1.125 5.6875 C-1.41375 4.800625 -1.7025 3.91375 -2 3 C-1.34 2.01 -0.68 1.02 0 0 Z " fill="#0649B6" transform="translate(291,252)"/>
<path d="M0 0 C0 0.66 0 1.32 0 2 C-1.98 2.99 -1.98 2.99 -4 4 C-3.34 4.33 -2.68 4.66 -2 5 C-2 5.99 -2 6.98 -2 8 C-4.31 8.33 -6.62 8.66 -9 9 C-7.67183131 4.6532661 -5.0855272 0 0 0 Z " fill="#6F8AF2" transform="translate(195,249)"/>
<path d="M0 0 C1.26026798 2.52053595 0.91874445 3.8542098 0.5625 6.625 C0.40974609 7.85089844 0.40974609 7.85089844 0.25390625 9.1015625 C0.17011719 9.72804688 0.08632813 10.35453125 0 11 C1.98 10.67 3.96 10.34 6 10 C5.67 10.99 5.34 11.98 5 13 C3.35 13.33 1.7 13.66 0 14 C-1.60789264 10.35544334 -2.73953443 6.99380545 -3 3 C-1.5625 1.125 -1.5625 1.125 0 0 Z " fill="#86A2EE" transform="translate(289,265)"/>
<path d="M0 0 C2.4375 0.75 2.4375 0.75 5 2 C5.8125 4.125 5.8125 4.125 6 6 C4.02 6.33 2.04 6.66 0 7 C0 4.69 0 2.38 0 0 Z " fill="#37B6FB" transform="translate(282,200)"/>
<path d="M0 0 C1.60332791 -0.08121924 3.20784026 -0.13929134 4.8125 -0.1875 C6.15248047 -0.23970703 6.15248047 -0.23970703 7.51953125 -0.29296875 C10.41647515 0.04918998 11.22555028 0.75393573 13 3 C12.01 3.495 12.01 3.495 11 4 C11 3.34 11 2.68 11 2 C8.36 2.66 5.72 3.32 3 4 C2.67 3.01 2.34 2.02 2 1 C1.34 0.67 0.68 0.34 0 0 Z " fill="#275FA6" transform="translate(250,145)"/>
<path d="M0 0 C1.32 0.33 2.64 0.66 4 1 C-1.18168032 5.25638026 -5.47006116 5.31094947 -12 5 C-12.99 4.34 -13.98 3.68 -15 3 C-14.41992188 3.01160156 -13.83984375 3.02320313 -13.2421875 3.03515625 C-8.7001754 3.08762174 -4.47286431 2.91751063 0 2 C0 1.34 0 0.68 0 0 Z " fill="#02559F" transform="translate(217,290)"/>
<path d="M0 0 C0.66 0.33 1.32 0.66 2 1 C-0.65073865 4.73066922 -2.5208892 6.82689955 -7 8 C-10.3125 8.125 -10.3125 8.125 -13 8 C-11 6 -11 6 -7.625 4.5625 C-4.62392972 3.26893522 -2.47254718 2.07693963 0 0 Z " fill="#41A7DA" transform="translate(224,288)"/>
<path d="M0 0 C1.65 0 3.3 0 5 0 C2.12952906 3.00094689 0.8594398 3.95312147 -3.4375 4.1875 C-7 4 -7 4 -10 2 C-6.7 2 -3.4 2 0 2 C0 1.34 0 0.68 0 0 Z " fill="#7FCDF2" transform="translate(259,167)"/>
<path d="M0 0 C0.99 0.33 1.98 0.66 3 1 C2.34 1 1.68 1 1 1 C1.0928125 2.8871875 1.0928125 2.8871875 1.1875 4.8125 C1.20826011 8.72231986 1.20826011 8.72231986 -0.5 11 C-0.995 11.33 -1.49 11.66 -2 12 C-2.33 9.36 -2.66 6.72 -3 4 C-2.01 4 -1.02 4 0 4 C0 2.68 0 1.36 0 0 Z " fill="#70C5F4" transform="translate(267,154)"/>
<path d="M0 0 C0.33 0 0.66 0 1 0 C1.19561869 2.0825867 1.38119313 4.16611856 1.5625 6.25 C1.66691406 7.41015625 1.77132813 8.5703125 1.87890625 9.765625 C1.98198087 12.51871477 1.86213473 14.419982 1 17 C0.01 16.67 -0.98 16.34 -2 16 C-1.34 10.72 -0.68 5.44 0 0 Z " fill="#5785BE" transform="translate(264,235)"/>
<path d="M0 0 C1.65 1.65 3.3 3.3 5 5 C1.25 8 1.25 8 -1 8 C-0.67 5.36 -0.34 2.72 0 0 Z " fill="#889AEB" transform="translate(329,248)"/>
<path d="M0 0 C1.43655854 -0.08131463 2.8744483 -0.13933559 4.3125 -0.1875 C5.51326172 -0.23970703 5.51326172 -0.23970703 6.73828125 -0.29296875 C9.47851584 0.06198392 10.29171079 0.89366282 12 3 C3.42857143 3.28571429 3.42857143 3.28571429 0 1 C0 0.67 0 0.34 0 0 Z " fill="#7D92EA" transform="translate(260,205)"/>
<path d="M0 0 C2.97 0.495 2.97 0.495 6 1 C6.33 1.99 6.66 2.98 7 4 C6.01 4.33 5.02 4.66 4 5 C3.01 6.485 3.01 6.485 2 8 C1.34 5.36 0.68 2.72 0 0 Z " fill="#2B64B2" transform="translate(285,211)"/>
<path d="M0 0 C0 0.99 0 1.98 0 3 C-2.97 3 -5.94 3 -9 3 C-9 2.34 -9 1.68 -9 1 C-5.8035914 -0.06546953 -3.34252724 -0.07427838 0 0 Z " fill="#4A9EFD" transform="translate(189,265)"/>
<path d="M0 0 C0.66 0 1.32 0 2 0 C2 1.98 2 3.96 2 6 C0.35 6 -1.3 6 -3 6 C-3 5.01 -3 4.02 -3 3 C-2.34 3 -1.68 3 -1 3 C-0.67 2.01 -0.34 1.02 0 0 Z " fill="#5271FD" transform="translate(251,231)"/>
<path d="M0 0 C0.66 0 1.32 0 2 0 C5.07692308 5.41538462 5.07692308 5.41538462 4.6875 8.375 C4.460625 8.91125 4.23375 9.4475 4 10 C3.34 10 2.68 10 2 10 C1.06576355 6.98968256 0.95550089 6.13349732 2 3 C1.34 3 0.68 3 0 3 C0 2.01 0 1.02 0 0 Z " fill="#376DB3" transform="translate(299,221)"/>
<path d="M0 0 C3.55007718 3.9050849 4.81819916 6.97734643 6 12 C5.01 11.67 4.02 11.34 3 11 C2.67 8.69 2.34 6.38 2 4 C1.34 4 0.68 4 0 4 C0 2.68 0 1.36 0 0 Z " fill="#8597EB" transform="translate(261,182)"/>
<path d="M0 0 C0.99 0.99 1.98 1.98 3 3 C2.34 4.98 1.68 6.96 1 9 C0.34 9 -0.32 9 -1 9 C-0.67 6.03 -0.34 3.06 0 0 Z " fill="#275FB8" transform="translate(331,260)"/>
<path d="M0 0 C0.33 0 0.66 0 1 0 C1.28571429 7.42857143 1.28571429 7.42857143 -1 11 C-1.66 11 -2.32 11 -3 11 C-2.67 8.69 -2.34 6.38 -2 4 C-1.34 4 -0.68 4 0 4 C0 2.68 0 1.36 0 0 Z " fill="#245AA3" transform="translate(228,275)"/>
<path d="M0 0 C0.66 1.32 1.32 2.64 2 4 C-1.22791555 6.1519437 -2.28400809 6.20086443 -6 6 C-4 4 -2 2 0 0 Z " fill="#7891E9" transform="translate(201,243)"/>
<path d="M0 0 C3.3 0.33 6.6 0.66 10 1 C6.1496895 3.56687367 4.41430237 2.83288724 0 2 C0 1.34 0 0.68 0 0 Z " fill="#3B6CB3" transform="translate(254,216)"/>
<path d="M0 0 C0.7425 0.45375 1.485 0.9075 2.25 1.375 C4.46930578 2.68640796 6.67967822 3.88280803 9 5 C6.1875 5.625 6.1875 5.625 3 6 C2.01 5.34 1.02 4.68 0 4 C0 2.68 0 1.36 0 0 Z " fill="#7F93F1" transform="translate(267,194)"/>
<path d="M0 0 C0.99 0 1.98 0 3 0 C2.75 1.875 2.75 1.875 2 4 C-0.0625 5.25 -0.0625 5.25 -2 6 C-1.49396008 3.83125748 -1.00016187 2.00032373 0 0 Z " fill="#1F5DAE" transform="translate(293,240)"/>
<path d="M0 0 C3.23475448 1.61737724 4.70572021 2.47629223 7 5 C6 7 6 7 4 8 C2.68 5.36 1.36 2.72 0 0 Z " fill="#889BEF" transform="translate(254,175)"/>
<path d="M0 0 C2.97 0 5.94 0 9 0 C7.515 1.485 7.515 1.485 6 3 C2.3125 2.6875 2.3125 2.6875 -1 2 C-0.67 1.34 -0.34 0.68 0 0 Z " fill="#39A2F2" transform="translate(205,282)"/>
<path d="M0 0 C1.32 0 2.64 0 4 0 C4 0.66 4 1.32 4 2 C3.34 2 2.68 2 2 2 C1.67 3.32 1.34 4.64 1 6 C0.34 5.34 -0.32 4.68 -1 4 C-0.625 1.875 -0.625 1.875 0 0 Z " fill="#2560AD" transform="translate(296,278)"/>
<path d="M0 0 C0.33 0 0.66 0 1 0 C1 3.3 1 6.6 1 10 C0.01 10 -0.98 10 -2 10 C-1.34 6.7 -0.68 3.4 0 0 Z " fill="#8B9EEC" transform="translate(264,254)"/>
<path d="M0 0 C3 3.625 3 3.625 3 7 C1.02 7.99 1.02 7.99 -1 9 C-0.67 6.03 -0.34 3.06 0 0 Z " fill="#5680B6" transform="translate(307,235)"/>
<path d="M0 0 C0 0.99 0 1.98 0 3 C-4.455 3.495 -4.455 3.495 -9 4 C-5 0 -5 0 0 0 Z " fill="#396AAF" transform="translate(290,194)"/>
<path d="M0 0 C1.33332095 2.6666419 0.67102033 4.16680303 0 7 C-0.66 7 -1.32 7 -2 7 C-2 7.66 -2 8.32 -2 9 C-2.66 9 -3.32 9 -4 9 C-2.94124926 5.59687262 -1.99097846 2.98646769 0 0 Z " fill="#8799EE" transform="translate(239,180)"/>
<path d="M0 0 C0.99 0.33 1.98 0.66 3 1 C1.6875 3.5 1.6875 3.5 0 6 C-0.99 6 -1.98 6 -3 6 C-2.34 5.67 -1.68 5.34 -1 5 C-0.34444881 2.47266765 -0.34444881 2.47266765 0 0 Z " fill="#3B6DB1" transform="translate(284,267)"/>
</svg>
